<svg xmlns="http://www.w3.org/2000/svg" width="40" height="40" viewBox="0 0 40 40"><g transform="translate(-29.47 -29.47)"><path d="M99.831,125.664c0-.916-.018-1.83-.032-2.746,0-.171.026-.286.229-.282a33.128,33.128,0,0,1,3.576.018,1.708,1.708,0,0,1,1.162,2.648,1.523,1.523,0,0,1-1.188.629,15.45,15.45,0,0,1-1.79.048c-.544,0-1.088-.01-1.632,0C99.913,125.991,99.831,125.9,99.831,125.664Z" transform="translate(-59.009 -78.129)" fill="#edf2ef" fill-rule="evenodd"/><path d="M105.389,160.325a1.84,1.84,0,0,1-1.508,2.034,3.912,3.912,0,0,1-.748.089c-1.086.01-2.173,0-3.259.01-.241,0-.325-.076-.324-.317q.014-1.649,0-3.3c0-.249.087-.312.328-.3.583.019,1.165.006,1.49.006a21.155,21.155,0,0,1,2.44.092A1.684,1.684,0,0,1,105.389,160.325Z" transform="translate(-58.801 -108.293)" fill="#edf2ef" fill-rule="evenodd"/><path d="M57.011,48.095a2.408,2.408,0,0,0-3.179,1.778c-.06.267-.011.351.266.344.674-.014,1.35,0,2.025,0h1.986c.164,0,.306.014.291-.241a2.244,2.244,0,0,0-1.389-1.877Zm0,0a2.408,2.408,0,0,0-3.179,1.778c-.06.267-.011.351.266.344.674-.014,1.35,0,2.025,0h1.986c.164,0,.306.014.291-.241a2.244,2.244,0,0,0-1.389-1.877Zm0,0a2.408,2.408,0,0,0-3.179,1.778c-.06.267-.011.351.266.344.674-.014,1.35,0,2.025,0h1.986c.164,0,.306.014.291-.241a2.244,2.244,0,0,0-1.389-1.877Zm0,0a2.408,2.408,0,0,0-3.179,1.778c-.06.267-.011.351.266.344.674-.014,1.35,0,2.025,0h1.986c.164,0,.306.014.291-.241a2.244,2.244,0,0,0-1.389-1.877ZM49.469,29.47a20,20,0,1,0,20,20A20,20,0,0,0,49.469,29.47Zm3.668,13.505c.227-.217.71-.056,1.078-.061.621-.008,1.244,0,1.867,0,.874,0,1.75.008,2.623,0,.261,0,.37.058.373.348.018,1.17.027,1.17-1.138,1.17-1.511,0-3.021,0-4.531.006-.269,0-.391-.063-.359-.351C53.094,43.7,52.889,43.212,53.137,42.975Zm-3.349,10a3.853,3.853,0,0,1-2.841,3.341,10.1,10.1,0,0,1-2.915.333c-2,0-4.008,0-6.011.008-.295,0-.381-.077-.381-.378q-.007-6.965-.043-13.933c0-.293.068-.383.37-.378,2.467.042,4.935.063,7.4.1a4.661,4.661,0,0,1,1.482.266,3.2,3.2,0,0,1,2.281,2.96,3.061,3.061,0,0,1-1.648,3.258c-.066.034-.159.047-.179.164.225.117.468.217.686.359A3.667,3.667,0,0,1,49.788,52.973Zm11.07-.916c-1.112-.035-2.229-.013-3.343-.013s-2.256.008-3.385,0c-.286,0-.4.055-.364.375a2.391,2.391,0,0,0,1.722,2.244,2.671,2.671,0,0,0,2.953-1.111.3.3,0,0,1,.28-.166c.718,0,1.434.008,2.15,0,.325,0,.216.172.158.333a4.482,4.482,0,0,1-3.4,3.085,6.693,6.693,0,0,1-4.272-.486,4.03,4.03,0,0,1-2.144-2.25,6.5,6.5,0,0,1,.093-5.294,4.9,4.9,0,0,1,4.421-2.953,5.786,5.786,0,0,1,3.061.526,4.673,4.673,0,0,1,2.462,3.893c.058.433.043.874.09,1.308.043.385-.061.526-.484.513Zm-3.847-3.963a2.408,2.408,0,0,0-3.179,1.778c-.06.267-.011.351.266.344.674-.014,1.35,0,2.025,0h1.986c.164,0,.306.014.291-.241a2.244,2.244,0,0,0-1.389-1.877Zm0,0a2.408,2.408,0,0,0-3.179,1.778c-.06.267-.011.351.266.344.674-.014,1.35,0,2.025,0h1.986c.164,0,.306.014.291-.241a2.244,2.244,0,0,0-1.389-1.877Zm0,0a2.408,2.408,0,0,0-3.179,1.778c-.06.267-.011.351.266.344.674-.014,1.35,0,2.025,0h1.986c.164,0,.306.014.291-.241a2.244,2.244,0,0,0-1.389-1.877Zm0,0a2.408,2.408,0,0,0-3.179,1.778c-.06.267-.011.351.266.344.674-.014,1.35,0,2.025,0h1.986c.164,0,.306.014.291-.241a2.244,2.244,0,0,0-1.389-1.877Zm0,0a2.408,2.408,0,0,0-3.179,1.778c-.06.267-.011.351.266.344.674-.014,1.35,0,2.025,0h1.986c.164,0,.306.014.291-.241a2.244,2.244,0,0,0-1.389-1.877Z" transform="translate(0 0)" fill="#edf2ef" fill-rule="evenodd"/></g></svg>