<svg xmlns="http://www.w3.org/2000/svg" xmlns:xlink="http://www.w3.org/1999/xlink" width="3562.085" height="278.21" viewBox="0 0 3562.085 278.21"><defs><linearGradient id="a" y1="0.5" x2="1" y2="0.5" gradientUnits="objectBoundingBox"><stop offset="0" stop-color="#fff"/><stop offset="1" stop-color="#a89d8e" stop-opacity="0"/></linearGradient></defs><g transform="translate(90.5 -372.5)"><g transform="translate(926.145 -261.575)" opacity="0.25" style="isolation:isolate"><path d="M655.855,582.148V304.938H759.014a108.328,108.328,0,0,1,55.967,15.134A113.649,113.649,0,0,1,855.8,360.9a108.3,108.3,0,0,1,15.137,55.959V470.23A108.279,108.279,0,0,1,855.8,526.189a113.565,113.565,0,0,1-40.823,40.824,108.228,108.228,0,0,1-55.967,15.135Z" transform="translate(0 329.637)" fill="url(#a)"/></g><g opacity="0.25"><g transform="translate(-745.855 -261.575)" opacity="0.97" style="isolation:isolate"><path d="M655.855,582.148V304.938H759.014a108.328,108.328,0,0,1,55.967,15.134A113.649,113.649,0,0,1,855.8,360.9a108.3,108.3,0,0,1,15.137,55.959V470.23A108.279,108.279,0,0,1,855.8,526.189a113.565,113.565,0,0,1-40.823,40.824,108.228,108.228,0,0,1-55.967,15.135Z" transform="translate(0 329.637)" fill="none" stroke="#edf2ef" stroke-width="1"/></g><g transform="translate(-506.855 -261.575)" opacity="0.97" style="isolation:isolate"><path d="M655.855,582.148V304.938H759.014a108.328,108.328,0,0,1,55.967,15.134A113.649,113.649,0,0,1,855.8,360.9a108.3,108.3,0,0,1,15.137,55.959V470.23A108.279,108.279,0,0,1,855.8,526.189a113.565,113.565,0,0,1-40.823,40.824,108.228,108.228,0,0,1-55.967,15.135Z" transform="translate(0 329.637)" fill="none" stroke="#edf2ef" stroke-width="1"/></g><g transform="translate(-267.855 -261.575)" opacity="0.97" style="isolation:isolate"><path d="M655.855,582.148V304.938H759.014a108.328,108.328,0,0,1,55.967,15.134A113.649,113.649,0,0,1,855.8,360.9a108.3,108.3,0,0,1,15.137,55.959V470.23A108.279,108.279,0,0,1,855.8,526.189a113.565,113.565,0,0,1-40.823,40.824,108.228,108.228,0,0,1-55.967,15.135Z" transform="translate(0 329.637)" fill="none" stroke="#edf2ef" stroke-width="1"/></g><g transform="translate(-28.855 -261.575)" opacity="0.97" style="isolation:isolate"><path d="M655.855,582.148V304.938H759.014a108.328,108.328,0,0,1,55.967,15.134A113.649,113.649,0,0,1,855.8,360.9a108.3,108.3,0,0,1,15.137,55.959V470.23A108.279,108.279,0,0,1,855.8,526.189a113.565,113.565,0,0,1-40.823,40.824,108.228,108.228,0,0,1-55.967,15.135Z" transform="translate(0 329.637)" fill="none" stroke="#edf2ef" stroke-width="1"/></g><g transform="translate(210.145 -261.575)" opacity="0.97" style="isolation:isolate"><path d="M655.855,582.148V304.938H759.014a108.328,108.328,0,0,1,55.967,15.134A113.649,113.649,0,0,1,855.8,360.9a108.3,108.3,0,0,1,15.137,55.959V470.23A108.279,108.279,0,0,1,855.8,526.189a113.565,113.565,0,0,1-40.823,40.824,108.228,108.228,0,0,1-55.967,15.135Z" transform="translate(0 329.637)" fill="none" stroke="#edf2ef" stroke-width="1"/></g><g transform="translate(449.145 -261.575)" opacity="0.97" style="isolation:isolate"><path d="M655.855,582.148V304.938H759.014a108.328,108.328,0,0,1,55.967,15.134A113.649,113.649,0,0,1,855.8,360.9a108.3,108.3,0,0,1,15.137,55.959V470.23A108.279,108.279,0,0,1,855.8,526.189a113.565,113.565,0,0,1-40.823,40.824,108.228,108.228,0,0,1-55.967,15.135Z" transform="translate(0 329.637)" fill="none" stroke="#edf2ef" stroke-width="1"/></g><g transform="translate(688.145 -261.575)" opacity="0.97" style="isolation:isolate"><path d="M655.855,582.148V304.938H759.014a108.328,108.328,0,0,1,55.967,15.134A113.649,113.649,0,0,1,855.8,360.9a108.3,108.3,0,0,1,15.137,55.959V470.23A108.279,108.279,0,0,1,855.8,526.189a113.565,113.565,0,0,1-40.823,40.824,108.228,108.228,0,0,1-55.967,15.135Z" transform="translate(0 329.637)" fill="none" stroke="#edf2ef" stroke-width="1"/></g><g transform="translate(927.145 -261.575)" opacity="0.97" style="isolation:isolate"><path d="M655.855,582.148V304.938H759.014a108.328,108.328,0,0,1,55.967,15.134A113.649,113.649,0,0,1,855.8,360.9a108.3,108.3,0,0,1,15.137,55.959V470.23A108.279,108.279,0,0,1,855.8,526.189a113.565,113.565,0,0,1-40.823,40.824,108.228,108.228,0,0,1-55.967,15.135Z" transform="translate(0 329.637)" fill="none" stroke="#edf2ef" stroke-width="1"/></g><g transform="translate(1166.145 -261.575)" opacity="0.97" style="isolation:isolate"><path d="M655.855,582.148V304.938H759.014a108.328,108.328,0,0,1,55.967,15.134A113.649,113.649,0,0,1,855.8,360.9a108.3,108.3,0,0,1,15.137,55.959V470.23A108.279,108.279,0,0,1,855.8,526.189a113.565,113.565,0,0,1-40.823,40.824,108.228,108.228,0,0,1-55.967,15.135Z" transform="translate(0 329.637)" fill="none" stroke="#edf2ef" stroke-width="1"/></g><g transform="translate(1405.145 -261.575)" opacity="0.97" style="isolation:isolate"><path d="M655.855,582.148V304.938H759.014a108.328,108.328,0,0,1,55.967,15.134A113.649,113.649,0,0,1,855.8,360.9a108.3,108.3,0,0,1,15.137,55.959V470.23A108.279,108.279,0,0,1,855.8,526.189a113.565,113.565,0,0,1-40.823,40.824,108.228,108.228,0,0,1-55.967,15.135Z" transform="translate(0 329.637)" fill="none" stroke="#edf2ef" stroke-width="1"/></g><g transform="translate(1644.145 -261.575)" opacity="0.97" style="isolation:isolate"><path d="M655.855,582.148V304.938H759.014a108.328,108.328,0,0,1,55.967,15.134A113.649,113.649,0,0,1,855.8,360.9a108.3,108.3,0,0,1,15.137,55.959V470.23A108.279,108.279,0,0,1,855.8,526.189a113.565,113.565,0,0,1-40.823,40.824,108.228,108.228,0,0,1-55.967,15.135Z" transform="translate(0 329.637)" fill="none" stroke="#edf2ef" stroke-width="1"/></g><g transform="translate(1883.145 -261.575)" opacity="0.97" style="isolation:isolate"><path d="M655.855,582.148V304.938H759.014a108.328,108.328,0,0,1,55.967,15.134A113.649,113.649,0,0,1,855.8,360.9a108.3,108.3,0,0,1,15.137,55.959V470.23A108.279,108.279,0,0,1,855.8,526.189a113.565,113.565,0,0,1-40.823,40.824,108.228,108.228,0,0,1-55.967,15.135Z" transform="translate(0 329.637)" fill="none" stroke="#edf2ef" stroke-width="1"/></g><g transform="translate(2122.145 -261.575)" opacity="0.97" style="isolation:isolate"><path d="M655.855,582.148V304.938H759.014a108.328,108.328,0,0,1,55.967,15.134A113.649,113.649,0,0,1,855.8,360.9a108.3,108.3,0,0,1,15.137,55.959V470.23A108.279,108.279,0,0,1,855.8,526.189a113.565,113.565,0,0,1-40.823,40.824,108.228,108.228,0,0,1-55.967,15.135Z" transform="translate(0 329.637)" fill="none" stroke="#edf2ef" stroke-width="1"/></g><g transform="translate(2361.145 -261.575)" opacity="0.97" style="isolation:isolate"><path d="M655.855,582.148V304.938H759.014a108.328,108.328,0,0,1,55.967,15.134A113.649,113.649,0,0,1,855.8,360.9a108.3,108.3,0,0,1,15.137,55.959V470.23A108.279,108.279,0,0,1,855.8,526.189a113.565,113.565,0,0,1-40.823,40.824,108.228,108.228,0,0,1-55.967,15.135Z" transform="translate(0 329.637)" fill="none" stroke="#edf2ef" stroke-width="1"/></g><g transform="translate(2600.145 -261.575)" opacity="0.97" style="isolation:isolate"><path d="M655.855,582.148V304.938H759.014a108.328,108.328,0,0,1,55.967,15.134A113.649,113.649,0,0,1,855.8,360.9a108.3,108.3,0,0,1,15.137,55.959V470.23A108.279,108.279,0,0,1,855.8,526.189a113.565,113.565,0,0,1-40.823,40.824,108.228,108.228,0,0,1-55.967,15.135Z" transform="translate(0 329.637)" fill="none" stroke="#edf2ef" stroke-width="1"/></g></g></g></svg>