<svg xmlns="http://www.w3.org/2000/svg" width="3562.085" height="278.21" viewBox="0 0 3562.085 278.21"><g transform="translate(90.5 -372.5)"><g opacity="0.25"><g transform="translate(-745.855 -261.575)" opacity="0.97" style="isolation:isolate"><path d="M759.014,582.648H655.355V304.438H759.014a112.107,112.107,0,0,1,29.26,3.8,109.543,109.543,0,0,1,26.96,11.4,114.148,114.148,0,0,1,41,41,109.527,109.527,0,0,1,11.4,26.96,112.056,112.056,0,0,1,3.8,29.253V470.23a112.056,112.056,0,0,1-3.8,29.256,109.528,109.528,0,0,1-11.4,26.956,114.065,114.065,0,0,1-41,41,109.309,109.309,0,0,1-26.96,11.406A112.158,112.158,0,0,1,759.014,582.648Zm-102.659-1H759.014a108.229,108.229,0,0,0,55.713-15.065,113.585,113.585,0,0,0,40.646-40.647,108.289,108.289,0,0,0,15.067-55.7V416.855a108.289,108.289,0,0,0-15.067-55.7A113.689,113.689,0,0,0,814.727,320.5a108.321,108.321,0,0,0-55.713-15.065H656.355Z" transform="translate(0 329.637)" fill="#edf2ef"/></g><g transform="translate(-506.855 -261.575)" opacity="0.97" style="isolation:isolate"><path d="M759.014,582.648H655.355V304.438H759.014a112.107,112.107,0,0,1,29.26,3.8,109.543,109.543,0,0,1,26.96,11.4,114.148,114.148,0,0,1,41,41,109.527,109.527,0,0,1,11.4,26.96,112.056,112.056,0,0,1,3.8,29.253V470.23a112.056,112.056,0,0,1-3.8,29.256,109.528,109.528,0,0,1-11.4,26.956,114.065,114.065,0,0,1-41,41,109.309,109.309,0,0,1-26.96,11.406A112.158,112.158,0,0,1,759.014,582.648Zm-102.659-1H759.014a108.229,108.229,0,0,0,55.713-15.065,113.585,113.585,0,0,0,40.646-40.647,108.289,108.289,0,0,0,15.067-55.7V416.855a108.289,108.289,0,0,0-15.067-55.7A113.689,113.689,0,0,0,814.727,320.5a108.321,108.321,0,0,0-55.713-15.065H656.355Z" transform="translate(0 329.637)" fill="#edf2ef"/></g><g transform="translate(-267.855 -261.575)" opacity="0.97" style="isolation:isolate"><path d="M759.014,582.648H655.355V304.438H759.014a112.107,112.107,0,0,1,29.26,3.8,109.543,109.543,0,0,1,26.96,11.4,114.148,114.148,0,0,1,41,41,109.527,109.527,0,0,1,11.4,26.96,112.056,112.056,0,0,1,3.8,29.253V470.23a112.056,112.056,0,0,1-3.8,29.256,109.528,109.528,0,0,1-11.4,26.956,114.065,114.065,0,0,1-41,41,109.309,109.309,0,0,1-26.96,11.406A112.158,112.158,0,0,1,759.014,582.648Zm-102.659-1H759.014a108.229,108.229,0,0,0,55.713-15.065,113.585,113.585,0,0,0,40.646-40.647,108.289,108.289,0,0,0,15.067-55.7V416.855a108.289,108.289,0,0,0-15.067-55.7A113.689,113.689,0,0,0,814.727,320.5a108.321,108.321,0,0,0-55.713-15.065H656.355Z" transform="translate(0 329.637)" fill="#edf2ef"/></g><g transform="translate(-28.855 -261.575)" opacity="0.97" style="isolation:isolate"><path d="M759.014,582.648H655.355V304.438H759.014a112.107,112.107,0,0,1,29.26,3.8,109.543,109.543,0,0,1,26.96,11.4,114.148,114.148,0,0,1,41,41,109.527,109.527,0,0,1,11.4,26.96,112.056,112.056,0,0,1,3.8,29.253V470.23a112.056,112.056,0,0,1-3.8,29.256,109.528,109.528,0,0,1-11.4,26.956,114.065,114.065,0,0,1-41,41,109.309,109.309,0,0,1-26.96,11.406A112.158,112.158,0,0,1,759.014,582.648Zm-102.659-1H759.014a108.229,108.229,0,0,0,55.713-15.065,113.585,113.585,0,0,0,40.646-40.647,108.289,108.289,0,0,0,15.067-55.7V416.855a108.289,108.289,0,0,0-15.067-55.7A113.689,113.689,0,0,0,814.727,320.5a108.321,108.321,0,0,0-55.713-15.065H656.355Z" transform="translate(0 329.637)" fill="#edf2ef"/></g><g transform="translate(210.145 -261.575)" opacity="0.97" style="isolation:isolate"><path d="M759.014,582.648H655.355V304.438H759.014a112.107,112.107,0,0,1,29.26,3.8,109.543,109.543,0,0,1,26.96,11.4,114.148,114.148,0,0,1,41,41,109.527,109.527,0,0,1,11.4,26.96,112.056,112.056,0,0,1,3.8,29.253V470.23a112.056,112.056,0,0,1-3.8,29.256,109.528,109.528,0,0,1-11.4,26.956,114.065,114.065,0,0,1-41,41,109.309,109.309,0,0,1-26.96,11.406A112.158,112.158,0,0,1,759.014,582.648Zm-102.659-1H759.014a108.229,108.229,0,0,0,55.713-15.065,113.585,113.585,0,0,0,40.646-40.647,108.289,108.289,0,0,0,15.067-55.7V416.855a108.289,108.289,0,0,0-15.067-55.7A113.689,113.689,0,0,0,814.727,320.5a108.321,108.321,0,0,0-55.713-15.065H656.355Z" transform="translate(0 329.637)" fill="#edf2ef"/></g><g transform="translate(449.145 -261.575)" opacity="0.97" style="isolation:isolate"><path d="M759.014,582.648H655.355V304.438H759.014a112.107,112.107,0,0,1,29.26,3.8,109.543,109.543,0,0,1,26.96,11.4,114.148,114.148,0,0,1,41,41,109.527,109.527,0,0,1,11.4,26.96,112.056,112.056,0,0,1,3.8,29.253V470.23a112.056,112.056,0,0,1-3.8,29.256,109.528,109.528,0,0,1-11.4,26.956,114.065,114.065,0,0,1-41,41,109.309,109.309,0,0,1-26.96,11.406A112.158,112.158,0,0,1,759.014,582.648Zm-102.659-1H759.014a108.229,108.229,0,0,0,55.713-15.065,113.585,113.585,0,0,0,40.646-40.647,108.289,108.289,0,0,0,15.067-55.7V416.855a108.289,108.289,0,0,0-15.067-55.7A113.689,113.689,0,0,0,814.727,320.5a108.321,108.321,0,0,0-55.713-15.065H656.355Z" transform="translate(0 329.637)" fill="#edf2ef"/></g><g transform="translate(688.145 -261.575)" opacity="0.97" style="isolation:isolate"><path d="M759.014,582.648H655.355V304.438H759.014a112.107,112.107,0,0,1,29.26,3.8,109.543,109.543,0,0,1,26.96,11.4,114.148,114.148,0,0,1,41,41,109.527,109.527,0,0,1,11.4,26.96,112.056,112.056,0,0,1,3.8,29.253V470.23a112.056,112.056,0,0,1-3.8,29.256,109.528,109.528,0,0,1-11.4,26.956,114.065,114.065,0,0,1-41,41,109.309,109.309,0,0,1-26.96,11.406A112.158,112.158,0,0,1,759.014,582.648Zm-102.659-1H759.014a108.229,108.229,0,0,0,55.713-15.065,113.585,113.585,0,0,0,40.646-40.647,108.289,108.289,0,0,0,15.067-55.7V416.855a108.289,108.289,0,0,0-15.067-55.7A113.689,113.689,0,0,0,814.727,320.5a108.321,108.321,0,0,0-55.713-15.065H656.355Z" transform="translate(0 329.637)" fill="#edf2ef"/></g><g transform="translate(927.145 -261.575)" opacity="0.97" style="isolation:isolate"><path d="M759.014,582.648H655.355V304.438H759.014a112.107,112.107,0,0,1,29.26,3.8,109.543,109.543,0,0,1,26.96,11.4,114.148,114.148,0,0,1,41,41,109.527,109.527,0,0,1,11.4,26.96,112.056,112.056,0,0,1,3.8,29.253V470.23a112.056,112.056,0,0,1-3.8,29.256,109.528,109.528,0,0,1-11.4,26.956,114.065,114.065,0,0,1-41,41,109.309,109.309,0,0,1-26.96,11.406A112.158,112.158,0,0,1,759.014,582.648Zm-102.659-1H759.014a108.229,108.229,0,0,0,55.713-15.065,113.585,113.585,0,0,0,40.646-40.647,108.289,108.289,0,0,0,15.067-55.7V416.855a108.289,108.289,0,0,0-15.067-55.7A113.689,113.689,0,0,0,814.727,320.5a108.321,108.321,0,0,0-55.713-15.065H656.355Z" transform="translate(0 329.637)" fill="#edf2ef"/></g><g transform="translate(1166.145 -261.575)" opacity="0.97" style="isolation:isolate"><path d="M759.014,582.648H655.355V304.438H759.014a112.107,112.107,0,0,1,29.26,3.8,109.543,109.543,0,0,1,26.96,11.4,114.148,114.148,0,0,1,41,41,109.527,109.527,0,0,1,11.4,26.96,112.056,112.056,0,0,1,3.8,29.253V470.23a112.056,112.056,0,0,1-3.8,29.256,109.528,109.528,0,0,1-11.4,26.956,114.065,114.065,0,0,1-41,41,109.309,109.309,0,0,1-26.96,11.406A112.158,112.158,0,0,1,759.014,582.648Zm-102.659-1H759.014a108.229,108.229,0,0,0,55.713-15.065,113.585,113.585,0,0,0,40.646-40.647,108.289,108.289,0,0,0,15.067-55.7V416.855a108.289,108.289,0,0,0-15.067-55.7A113.689,113.689,0,0,0,814.727,320.5a108.321,108.321,0,0,0-55.713-15.065H656.355Z" transform="translate(0 329.637)" fill="#edf2ef"/></g><g transform="translate(1405.145 -261.575)" opacity="0.97" style="isolation:isolate"><path d="M759.014,582.648H655.355V304.438H759.014a112.107,112.107,0,0,1,29.26,3.8,109.543,109.543,0,0,1,26.96,11.4,114.148,114.148,0,0,1,41,41,109.527,109.527,0,0,1,11.4,26.96,112.056,112.056,0,0,1,3.8,29.253V470.23a112.056,112.056,0,0,1-3.8,29.256,109.528,109.528,0,0,1-11.4,26.956,114.065,114.065,0,0,1-41,41,109.309,109.309,0,0,1-26.96,11.406A112.158,112.158,0,0,1,759.014,582.648Zm-102.659-1H759.014a108.229,108.229,0,0,0,55.713-15.065,113.585,113.585,0,0,0,40.646-40.647,108.289,108.289,0,0,0,15.067-55.7V416.855a108.289,108.289,0,0,0-15.067-55.7A113.689,113.689,0,0,0,814.727,320.5a108.321,108.321,0,0,0-55.713-15.065H656.355Z" transform="translate(0 329.637)" fill="#edf2ef"/></g><g transform="translate(1644.145 -261.575)" opacity="0.97" style="isolation:isolate"><path d="M759.014,582.648H655.355V304.438H759.014a112.107,112.107,0,0,1,29.26,3.8,109.543,109.543,0,0,1,26.96,11.4,114.148,114.148,0,0,1,41,41,109.527,109.527,0,0,1,11.4,26.96,112.056,112.056,0,0,1,3.8,29.253V470.23a112.056,112.056,0,0,1-3.8,29.256,109.528,109.528,0,0,1-11.4,26.956,114.065,114.065,0,0,1-41,41,109.309,109.309,0,0,1-26.96,11.406A112.158,112.158,0,0,1,759.014,582.648Zm-102.659-1H759.014a108.229,108.229,0,0,0,55.713-15.065,113.585,113.585,0,0,0,40.646-40.647,108.289,108.289,0,0,0,15.067-55.7V416.855a108.289,108.289,0,0,0-15.067-55.7A113.689,113.689,0,0,0,814.727,320.5a108.321,108.321,0,0,0-55.713-15.065H656.355Z" transform="translate(0 329.637)" fill="#edf2ef"/></g><g transform="translate(1883.145 -261.575)" opacity="0.97" style="isolation:isolate"><path d="M759.014,582.648H655.355V304.438H759.014a112.107,112.107,0,0,1,29.26,3.8,109.543,109.543,0,0,1,26.96,11.4,114.148,114.148,0,0,1,41,41,109.527,109.527,0,0,1,11.4,26.96,112.056,112.056,0,0,1,3.8,29.253V470.23a112.056,112.056,0,0,1-3.8,29.256,109.528,109.528,0,0,1-11.4,26.956,114.065,114.065,0,0,1-41,41,109.309,109.309,0,0,1-26.96,11.406A112.158,112.158,0,0,1,759.014,582.648Zm-102.659-1H759.014a108.229,108.229,0,0,0,55.713-15.065,113.585,113.585,0,0,0,40.646-40.647,108.289,108.289,0,0,0,15.067-55.7V416.855a108.289,108.289,0,0,0-15.067-55.7A113.689,113.689,0,0,0,814.727,320.5a108.321,108.321,0,0,0-55.713-15.065H656.355Z" transform="translate(0 329.637)" fill="#edf2ef"/></g><g transform="translate(2122.145 -261.575)" opacity="0.97" style="isolation:isolate"><path d="M759.014,582.648H655.355V304.438H759.014a112.107,112.107,0,0,1,29.26,3.8,109.543,109.543,0,0,1,26.96,11.4,114.148,114.148,0,0,1,41,41,109.527,109.527,0,0,1,11.4,26.96,112.056,112.056,0,0,1,3.8,29.253V470.23a112.056,112.056,0,0,1-3.8,29.256,109.528,109.528,0,0,1-11.4,26.956,114.065,114.065,0,0,1-41,41,109.309,109.309,0,0,1-26.96,11.406A112.158,112.158,0,0,1,759.014,582.648Zm-102.659-1H759.014a108.229,108.229,0,0,0,55.713-15.065,113.585,113.585,0,0,0,40.646-40.647,108.289,108.289,0,0,0,15.067-55.7V416.855a108.289,108.289,0,0,0-15.067-55.7A113.689,113.689,0,0,0,814.727,320.5a108.321,108.321,0,0,0-55.713-15.065H656.355Z" transform="translate(0 329.637)" fill="#edf2ef"/></g><g transform="translate(2361.145 -261.575)" opacity="0.97" style="isolation:isolate"><path d="M759.014,582.648H655.355V304.438H759.014a112.107,112.107,0,0,1,29.26,3.8,109.543,109.543,0,0,1,26.96,11.4,114.148,114.148,0,0,1,41,41,109.527,109.527,0,0,1,11.4,26.96,112.056,112.056,0,0,1,3.8,29.253V470.23a112.056,112.056,0,0,1-3.8,29.256,109.528,109.528,0,0,1-11.4,26.956,114.065,114.065,0,0,1-41,41,109.309,109.309,0,0,1-26.96,11.406A112.158,112.158,0,0,1,759.014,582.648Zm-102.659-1H759.014a108.229,108.229,0,0,0,55.713-15.065,113.585,113.585,0,0,0,40.646-40.647,108.289,108.289,0,0,0,15.067-55.7V416.855a108.289,108.289,0,0,0-15.067-55.7A113.689,113.689,0,0,0,814.727,320.5a108.321,108.321,0,0,0-55.713-15.065H656.355Z" transform="translate(0 329.637)" fill="#edf2ef"/></g><g transform="translate(2600.145 -261.575)" opacity="0.97" style="isolation:isolate"><path d="M759.014,582.648H655.355V304.438H759.014a112.107,112.107,0,0,1,29.26,3.8,109.543,109.543,0,0,1,26.96,11.4,114.148,114.148,0,0,1,41,41,109.527,109.527,0,0,1,11.4,26.96,112.056,112.056,0,0,1,3.8,29.253V470.23a112.056,112.056,0,0,1-3.8,29.256,109.528,109.528,0,0,1-11.4,26.956,114.065,114.065,0,0,1-41,41,109.309,109.309,0,0,1-26.96,11.406A112.158,112.158,0,0,1,759.014,582.648Zm-102.659-1H759.014a108.229,108.229,0,0,0,55.713-15.065,113.585,113.585,0,0,0,40.646-40.647,108.289,108.289,0,0,0,15.067-55.7V416.855a108.289,108.289,0,0,0-15.067-55.7A113.689,113.689,0,0,0,814.727,320.5a108.321,108.321,0,0,0-55.713-15.065H656.355Z" transform="translate(0 329.637)" fill="#edf2ef"/></g></g></g></svg>