<svg xmlns="http://www.w3.org/2000/svg" width="40" height="40" viewBox="0 0 40 40"><g transform="translate(-31.367 -32.932)"><path d="M71.367,53.477c0-11.347-8.954-20.545-20-20.545s-20,9.2-20,20.545A20.518,20.518,0,0,0,44.859,72.909a1.97,1.97,0,0,0,1.03-1.53c0-1.13-.024-4.037-.024-4.037a13.511,13.511,0,0,1-2.107.152,4.544,4.544,0,0,1-4.579-3.174,5.521,5.521,0,0,0-2.247-2.737c-.517-.342-.636-.745-.038-.861,2.763-.532,3.47,3.2,5.315,3.8a5.065,5.065,0,0,0,3.853-.316,4.108,4.108,0,0,1,1.586-2.646c-4.694-.461-7.477-2.126-8.92-4.8l-.155-.3-.363-.851-.107-.3a14.77,14.77,0,0,1-.652-4.653,8.055,8.055,0,0,1,2.205-5.9A8.432,8.432,0,0,1,40,38.828s2.032-.43,5.872,2.379c2.081-.911,7.631-.987,10.257-.2,1.611-1.088,4.559-2.632,5.748-2.2.322.53,1.016,2.074.421,5.465a9.669,9.669,0,0,1,2.51,6.809,18.076,18.076,0,0,1-.514,4.227l-.173.6s-.1.285-.207.556l-.127.3c-1.392,3.125-4.249,4.291-8.864,4.776,1.5.962,1.925,2.169,1.925,5.434s-.043,3.7-.033,4.455a2.074,2.074,0,0,0,.99,1.5A20.516,20.516,0,0,0,71.367,53.477Z" fill="#edf2ef"/></g></svg>