<svg xmlns="http://www.w3.org/2000/svg" width="40" height="40" viewBox="0 0 40 40"><path d="M65.53,23.6a20,20,0,1,0,20,20A20,20,0,0,0,65.53,23.6ZM59.7,53.22H55.323v-14.2H59.7Zm-.34-17.081a2.6,2.6,0,0,1-1.823.638,2.559,2.559,0,0,1-1.816-.659,2.122,2.122,0,0,1-.707-1.615,2.045,2.045,0,0,1,.707-1.608,2.962,2.962,0,0,1,3.639,0,2.052,2.052,0,0,1,.7,1.608A2.111,2.111,0,0,1,59.363,36.139ZM77.1,53.22H72.736V45.332q0-3.3-2.357-3.3a2.337,2.337,0,0,0-1.871.874,3.326,3.326,0,0,0-.736,2.218v8.1H63.391v-14.2h4.381v2.246h.056a5.021,5.021,0,0,1,4.561-2.592q4.713,0,4.714,5.85Z" transform="translate(-45.53 -23.599)" fill="#edf2ef"/></svg>