<svg xmlns="http://www.w3.org/2000/svg" width="62.524" height="52.748" viewBox="0 0 62.524 52.748"><g transform="translate(-30.931 -32.271)"><g transform="translate(30.931 32.271)"><path d="M58.841,68.46c3.806-.067,6.343-.8,6.744-4.206l2.871-23.636c.467-3.673-1.335-6.009-4.14-5.475s-5.208,5.609-6.21,7.679L50.028,59.379a8.885,8.885,0,0,1-8.346,5.275,7.256,7.256,0,0,1-7.144-7.412c0-2.871,2-5.475,5.074-7.945L53.032,38.614c5.809-4.607,8.212-6.343,12.553-6.343,4.007,0,6.744,2.871,7.612,7.411L79.273,71.8c1.4,7.479-.868,13.221-7.746,13.221-5.475,0-8.079-3.472-8.079-7.545V74c0-3.672-1.937-4.139-4.273-2.137l-6.543,5.609c-3.072,2.6-8.013,7.545-13.488,7.545-3.872,0-8.213-2.2-8.213-8.48,0-5.342,4.808-7.545,10.683-7.679Z" transform="translate(-30.931 -32.271)" fill="#edf2ef"/></g><circle cx="5.004" cy="5.004" r="5.004" transform="translate(83.448 75.012)" fill="#7692ff"/></g></svg>