<svg xmlns="http://www.w3.org/2000/svg" width="41.836" height="44.057" viewBox="0 0 41.836 44.057">
  <g id="Group_256" data-name="Group 256" transform="translate(-43 -47.068)">
    <g id="Group_225" data-name="Group 225" transform="translate(52.15 52.504)">
      <g id="Group_224" data-name="Group 224" transform="translate(0)">
        <g id="Group_217" data-name="Group 217" transform="translate(0 17.829)">
          <g id="Group_216" data-name="Group 216">
            <g id="Group_215" data-name="Group 215">
              <path id="Path_106" data-name="Path 106" d="M115.266,210.925a7.044,7.044,0,0,1-2.3,5.553,8.977,8.977,0,0,1-6.181,2.043h-1.99V203.33h1.99a8.976,8.976,0,0,1,6.181,2.043A7.042,7.042,0,0,1,115.266,210.925Z" transform="translate(-104.708 -203.248)" fill="#fff"/>
              <path id="Path_107" data-name="Path 107" d="M106.313,218.135H104.24V202.78h2.073a9.094,9.094,0,0,1,6.235,2.064,7.923,7.923,0,0,1,0,11.228A9.1,9.1,0,0,1,106.313,218.135Zm-1.908-.164h1.908a8.937,8.937,0,0,0,6.126-2.022,7.76,7.76,0,0,0,0-10.982,8.937,8.937,0,0,0-6.126-2.022H104.4Z" transform="translate(-104.24 -202.78)" fill="#fff"/>
            </g>
          </g>
        </g>
        <g id="Group_220" data-name="Group 220" transform="translate(12.896 17.829)">
          <g id="Group_219" data-name="Group 219">
            <g id="Group_218" data-name="Group 218">
              <path id="Path_108" data-name="Path 108" d="M201.574,210.925a7.044,7.044,0,0,1-2.3,5.553,8.977,8.977,0,0,1-6.181,2.043H191.1V203.33h1.99a8.977,8.977,0,0,1,6.181,2.043A7.041,7.041,0,0,1,201.574,210.925Z" transform="translate(-191.016 -203.248)" fill="#fff"/>
              <path id="Path_109" data-name="Path 109" d="M192.621,218.135h-2.073V202.78h2.073a9.094,9.094,0,0,1,6.235,2.064,7.923,7.923,0,0,1,0,11.228A9.1,9.1,0,0,1,192.621,218.135Zm-1.908-.164h1.908a8.937,8.937,0,0,0,6.126-2.022,7.76,7.76,0,0,0,0-10.982,8.936,8.936,0,0,0-6.126-2.022h-1.908Z" transform="translate(-190.548 -202.78)" fill="#fff"/>
            </g>
          </g>
        </g>
        <g id="Group_223" data-name="Group 223" transform="translate(12.896)">
          <g id="Group_222" data-name="Group 222">
            <g id="Group_221" data-name="Group 221">
              <path id="Path_110" data-name="Path 110" d="M201.574,91.595a7.044,7.044,0,0,1-2.3,5.553,8.977,8.977,0,0,1-6.181,2.043H191.1V84h1.99a8.977,8.977,0,0,1,6.181,2.043A7.041,7.041,0,0,1,201.574,91.595Z" transform="translate(-191.016 -83.918)" fill="#fff"/>
              <path id="Path_111" data-name="Path 111" d="M192.621,98.805h-2.073V83.45h2.073a9.1,9.1,0,0,1,6.235,2.064,7.923,7.923,0,0,1,0,11.228A9.094,9.094,0,0,1,192.621,98.805Zm-1.908-.164h1.908a8.936,8.936,0,0,0,6.126-2.022,7.76,7.76,0,0,0,0-10.982,8.937,8.937,0,0,0-6.126-2.022h-1.908Z" transform="translate(-190.548 -83.45)" fill="#fff"/>
            </g>
          </g>
        </g>
      </g>
    </g>
    <g id="Group_226" data-name="Group 226" transform="translate(43 47.068)">
      <path id="Path_112" data-name="Path 112" d="M84.836,91.125H43V47.068H84.836Zm-40.64-1.2H83.64V48.263H44.2Z" transform="translate(-43 -47.068)" fill="#fff"/>
    </g>
  </g>
</svg>
