<svg xmlns="http://www.w3.org/2000/svg" width="35.604" height="45.091" viewBox="0 0 35.604 45.091">
  <g id="Group_129" data-name="Group 129" transform="translate(-68.855 -49.938)">
    <path id="Path_87" data-name="Path 87" d="M68.855,226.7V205.938h7.726a8.113,8.113,0,0,1,4.192,1.133,8.512,8.512,0,0,1,3.057,3.058,8.111,8.111,0,0,1,1.134,4.191v4a8.11,8.11,0,0,1-1.134,4.191,8.506,8.506,0,0,1-3.057,3.058,8.106,8.106,0,0,1-4.192,1.134Z" transform="translate(0 -131.671)" fill="#edf2ef"/>
    <path id="Path_88" data-name="Path 88" d="M193.855,226.7V205.938h7.726a8.113,8.113,0,0,1,4.192,1.133,8.512,8.512,0,0,1,3.057,3.058,8.111,8.111,0,0,1,1.134,4.191v4a8.11,8.11,0,0,1-1.134,4.191,8.506,8.506,0,0,1-3.057,3.058,8.106,8.106,0,0,1-4.192,1.134Z" transform="translate(-105.505 -131.671)" fill="#edf2ef"/>
    <path id="Path_89" data-name="Path 89" d="M193.855,70.68V49.938h7.6a7.893,7.893,0,0,1,4.125,1.132,8.444,8.444,0,0,1,3.009,3.055,8.2,8.2,0,0,1,1.115,4.187v3.994a8.2,8.2,0,0,1-1.115,4.187,8.44,8.44,0,0,1-3.009,3.055,7.886,7.886,0,0,1-4.125,1.133Z" transform="translate(-105.505)" fill="#edf2ef"/>
  </g>
</svg>
