<svg xmlns="http://www.w3.org/2000/svg" xmlns:xlink="http://www.w3.org/1999/xlink" width="562.276" height="712.112" viewBox="0 0 562.276 712.112"><defs><linearGradient id="a" x1="0.434" y1="0.143" x2="0.42" y2="1.036" gradientUnits="objectBoundingBox"><stop offset="0" stop-color="#ff7360"/><stop offset="1" stop-color="#ff7360" stop-opacity="0"/></linearGradient></defs><g transform="translate(-68.855 -49.938)"><g transform="translate(68.855 434.165)"><path d="M68.855,533.823V205.938H190.871a128.13,128.13,0,0,1,66.2,17.9,134.423,134.423,0,0,1,48.285,48.287,128.1,128.1,0,0,1,17.9,66.188v63.132a128.075,128.075,0,0,1-17.9,66.188,134.327,134.327,0,0,1-48.285,48.287,128.015,128.015,0,0,1-66.2,17.9Z" transform="translate(-68.855 -205.938)" fill="url(#a)"/></g><path d="M193.855,533.823V205.938H315.871a128.13,128.13,0,0,1,66.2,17.9,134.423,134.423,0,0,1,48.284,48.287,128.1,128.1,0,0,1,17.9,66.188v63.132a128.074,128.074,0,0,1-17.9,66.188,134.326,134.326,0,0,1-48.284,48.287,128.015,128.015,0,0,1-66.2,17.9Z" transform="translate(182.874 228.227)" fill="url(#a)"/><g transform="translate(376.729 49.938)"><path d="M193.855,377.516V49.938H313.921a124.655,124.655,0,0,1,65.141,17.884,133.359,133.359,0,0,1,47.514,48.24,129.5,129.5,0,0,1,17.615,66.126v63.075a129.469,129.469,0,0,1-17.615,66.126,133.282,133.282,0,0,1-47.514,48.24,124.542,124.542,0,0,1-65.141,17.886Z" transform="translate(-193.855 -49.938)" fill="url(#a)"/></g></g></svg>