<svg xmlns="http://www.w3.org/2000/svg" width="423.729" height="458.605" viewBox="0 0 423.729 458.605"><path d="M273.585,346.907c33.092-.582,55.15-6.967,58.632-36.571l24.964-205.5c4.061-31.931-11.61-52.247-35.992-47.6S275.909,106,267.2,123.99L196.961,267.959c-18.579,38.314-51.089,45.862-72.566,45.862-34.252,0-62.114-28.449-62.114-64.441,0-24.959,17.413-47.6,44.117-69.079L223.083,87.416c50.5-40.053,71.4-55.145,109.135-55.145,34.834,0,58.632,24.959,66.178,64.436l52.829,279.226c12.189,65.02-7.548,114.943-67.342,114.943-47.6,0-70.239-30.186-70.239-65.6V395.091c0-31.928-16.837-35.99-37.153-18.576L219.6,425.279c-26.707,22.64-69.663,65.6-117.267,65.6-33.668,0-71.4-19.158-71.4-73.724,0-46.444,41.8-65.6,92.882-66.76Z" transform="translate(-30.931 -32.271)" fill="#edf2ef"/></svg>