<svg xmlns="http://www.w3.org/2000/svg" width="29.844" height="37.798" viewBox="0 0 29.844 37.798"><g transform="translate(-22 -14.368)"><g transform="translate(22 14.368)"><g transform="translate(0 20.395)"><path d="M22,42.705V25.3h6.476a6.815,6.815,0,0,1,3.514.949,7.151,7.151,0,0,1,2.563,2.563,6.809,6.809,0,0,1,.949,3.512v3.352a6.8,6.8,0,0,1-.949,3.512,7.121,7.121,0,0,1-2.563,2.563,6.8,6.8,0,0,1-3.514.951Z" transform="translate(-22 -25.302)" fill="#363636"/></g><g transform="translate(16.342 20.395)"><path d="M30.761,42.705V25.3h6.476a6.815,6.815,0,0,1,3.514.949,7.151,7.151,0,0,1,2.563,2.563,6.809,6.809,0,0,1,.949,3.512v3.352a6.8,6.8,0,0,1-.949,3.512,7.121,7.121,0,0,1-2.563,2.563,6.8,6.8,0,0,1-3.514.951Z" transform="translate(-30.761 -25.302)" fill="#363636"/></g><g transform="translate(16.342)"><path d="M30.761,31.756V14.368h6.372a6.618,6.618,0,0,1,3.458.949,7.078,7.078,0,0,1,2.522,2.561,6.872,6.872,0,0,1,.935,3.509v3.348a6.874,6.874,0,0,1-.935,3.51,7.078,7.078,0,0,1-2.522,2.561,6.618,6.618,0,0,1-3.458.949Z" transform="translate(-30.761 -14.368)" fill="#363636"/></g></g></g></svg>