<svg xmlns="http://www.w3.org/2000/svg" width="55.277" height="59.829" viewBox="0 0 55.277 59.829">
  <path id="Path_120" data-name="Path 120" d="M31.656,41.046c4.316-.075,7.195-.908,7.649-4.77L42.56,9.468c.528-4.167-1.514-6.816-4.695-6.209s-5.908,6.362-7.042,8.709l-9.163,18.78a10.071,10.071,0,0,1-9.468,5.982,8.231,8.231,0,0,1-8.1-8.408c0-3.255,2.273-6.209,5.755-9.011L25.067,7.195C31.656,1.968,34.382,0,39.3,0c4.543,0,7.649,3.255,8.635,8.408l6.89,36.425c1.589,8.482-.986,15-8.784,15-6.209,0-9.163-3.94-9.163-8.557v-3.94c0-4.167-2.2-4.695-4.847-2.422l-7.422,6.362c-3.482,2.954-9.088,8.557-15.3,8.557C4.922,59.829,0,57.329,0,50.212c0-6.06,5.454-8.557,12.117-8.709l19.539-.454Z" transform="translate(0 0)" fill="#edf2ef"/>
</svg>
