<svg xmlns="http://www.w3.org/2000/svg" width="44.099" height="62.306" viewBox="0 0 44.099 62.306"><g transform="translate(-595.523 -293)"><g transform="translate(595.523 326.643)"><path d="M615.289,349.654q0,6.624-4.348,10.478t-11.663,3.855h-3.755V335.323h3.755q7.313,0,11.663,3.854T615.289,349.654Z" transform="translate(-595.523 -335.323)" fill="#ebf6ff"/></g><g transform="translate(619.855 326.643)"><path d="M645.9,349.654q0,6.624-4.348,10.478t-11.663,3.855h-3.756V335.323h3.756q7.313,0,11.663,3.854T645.9,349.654Z" transform="translate(-626.133 -335.323)" fill="#ebf6ff"/></g><g transform="translate(619.855 293)"><path d="M645.9,307.331q0,6.625-4.348,10.478t-11.663,3.854h-3.756V293h3.756q7.313,0,11.663,3.855T645.9,307.331Z" transform="translate(-626.133 -293)" fill="#ebf6ff"/></g></g></svg>