<svg xmlns="http://www.w3.org/2000/svg" width="17.091" height="20.132" viewBox="0 0 17.091 20.132"><path d="M150.206,76.893,147.1,92.911a1.178,1.178,0,0,1-.537.811.794.794,0,0,1-.843-.025l-3.939-2.538-1.862,3.8a.984.984,0,0,1-.671.561.836.836,0,0,1-.777-.273,1.345,1.345,0,0,1-.338-.916V90.1a1.363,1.363,0,0,1,.3-.871l7.673-9.145a.167.167,0,0,0-.07-.139.107.107,0,0,0-.131.012l-9.16,7.955-3.075-1.982a1.16,1.16,0,0,1-.466-.665,1.483,1.483,0,0,1,.023-.883,1.115,1.115,0,0,1,.5-.626l15.162-8.252a.788.788,0,0,1,.7-.036,1.055,1.055,0,0,1,.534.56,1.472,1.472,0,0,1,.092.863Z" transform="translate(-133.142 -75.406)" fill="#edf2ef"/></svg>