<svg xmlns="http://www.w3.org/2000/svg" width="54.894" height="49.237" viewBox="0 0 54.894 49.237"><path d="M9.916,0h3.7a0,0,0,0,1,0,0V15.494a0,0,0,0,1,0,0H0a0,0,0,0,1,0,0V9.916A9.916,9.916,0,0,1,9.916,0Z" fill="#ff7360"/><path d="M0,0H29.32a10.3,10.3,0,0,1,10.3,10.3v5.192a0,0,0,0,1,0,0H0a0,0,0,0,1,0,0V0A0,0,0,0,1,0,0Z" transform="translate(15.271)" fill="#ff7360"/><path d="M0,0H24.351a0,0,0,0,1,0,0V15.494a0,0,0,0,1,0,0H9.832A9.832,9.832,0,0,1,0,5.663V0A0,0,0,0,1,0,0Z" transform="translate(0 33.743)" fill="#ff7360"/><rect width="33.431" height="15.494" transform="translate(0 16.871)" fill="#ff7360"/><rect width="19.605" height="15.494" transform="translate(35.289 16.871)" fill="#ff7360"/><path d="M0,0H28.891a0,0,0,0,1,0,0V5.575a9.919,9.919,0,0,1-9.919,9.919H0a0,0,0,0,1,0,0V0A0,0,0,0,1,0,0Z" transform="translate(26.002 33.743)" fill="#ff7360"/><rect width="0.825" height="0.689" transform="translate(20.843 7.747)" fill="#ff7360"/></svg>